# xmcd CD database file
#
# Track frame offsets:
#	150
#	23132
#	46037
#
# Disc length: 919 seconds
#
# Revision: 0
# Processed by: cddbd v1.5PL3 Copyright (c) Steve Scherf et al.
# Submitted via: CDex 1.50beta9
#
DISCID=17039503
DTITLE=trf - 寒い夜だから…
DYEAR=1900
DGENRE=JPop
TTITLE0=寒い夜だから…(ORIGINAL MIX)
TTITLE1=寒い夜だから…(INSTRUMENTAL)
TTITLE2=寒い夜だから…(ALTERNATIVE MIX)
EXTD=
EXTT0=
EXTT1=
EXTT2=
PLAYORDER=
